<?xml version="1.0" encoding="UTF-8"?> <svg xmlns="http://www.w3.org/2000/svg" width="180" height="180" viewBox="0 0 180 180" fill="none"><rect width="180" height="180" rx="90" fill="#140B0B"></rect><path d="M112.47 90.2237C112.431 102.774 102.28 113.006 89.8912 112.99C77.4638 112.974 67.2607 102.628 67.3383 90.117C67.4159 77.5474 77.5964 67.3184 89.9558 67.3863C102.396 67.4574 112.509 77.7187 112.47 90.2237ZM104.527 82.4582C103.489 79.0151 101.665 76.3092 98.6265 74.5408C95.4615 72.698 92.0087 72.3973 88.4881 72.9857C82.5718 73.975 78.4693 77.2758 76.6427 83.0433C74.8419 88.7268 75.343 94.323 77.8809 99.7123C79.0576 102.211 80.8746 104.161 83.3186 105.486C85.4071 106.618 87.6798 107.061 90.0237 107.184C94.9183 107.439 99.1761 106.12 102.299 102.095C103.68 100.317 104.52 98.2865 105.083 96.0429C103.579 95.6679 102.144 95.3123 100.666 94.9437C100.55 95.3801 100.463 95.7261 100.369 96.072C99.1147 100.666 95.7136 103.353 91.0938 103.404C86.2768 103.456 82.6009 100.866 81.1526 96.3048C79.7915 92.0147 79.8368 87.6955 81.2011 83.4184C81.964 81.0228 83.4512 79.1444 85.6754 77.8901C87.7833 76.7004 90.0593 76.4029 92.4225 76.6163C95.5811 76.904 97.9088 78.4461 99.286 81.3364C99.6158 82.0282 99.9035 82.7394 100.227 83.483C101.646 83.1436 103.039 82.8138 104.527 82.4582Z" fill="white"></path><path d="M60.5885 34.2198L35 90.4176H38.026L61.7976 38.2933L60.5885 34.2198Z" fill="white"></path><path d="M61.798 38.2933L62.6515 42.0888L40.5577 90.4177H38.0264L61.798 38.2933Z" fill="white"></path><path d="M119.427 34L144.999 90.4176H142.468L118.477 38.2933L119.427 34Z" fill="white"></path><path d="M118.478 38.2933L117.624 42.0338L139.663 90.4177H142.469L118.478 38.2933Z" fill="white"></path><path d="M119.428 34L117.624 42.0338L90.0957 64.7062V58.0497L119.428 34Z" fill="white"></path><path d="M60.5889 34.2198L90.0957 58.0497V61.5703L61.798 38.2933L60.5889 34.2198Z" fill="white"></path><path d="M61.7979 38.2933L62.6513 42.0888L90.0956 64.7063V61.5703L61.7979 38.2933Z" fill="white"></path><path d="M90.0957 61.5703L118.477 38.2933L117.624 42.0338L90.0957 64.7063V61.5703Z" fill="white"></path><path d="M119.411 146.612L145 90.4176H142.468L118.202 142.542L119.411 146.612Z" fill="white"></path><path d="M118.202 142.542L117.349 138.743L139.662 90.4176H142.468L118.202 142.542Z" fill="white"></path><path d="M60.5724 146.832L35 90.4176H38.026L61.5228 142.542L60.5724 146.832Z" fill="white"></path><path d="M61.5232 142.542L62.3767 138.798L40.5577 90.4176H38.0264L61.5232 142.542Z" fill="white"></path><path d="M60.5723 146.832L62.3762 138.798L89.9045 116.129V122.786L60.5723 146.832Z" fill="white"></path><path d="M119.411 146.612L89.9043 122.786V119.265L118.202 142.542L119.411 146.612Z" fill="white"></path><path d="M118.202 142.542L117.349 138.743L89.9043 116.129V119.265L118.202 142.542Z" fill="white"></path><path d="M89.9052 119.265L61.5234 142.542L62.3769 138.798L89.9052 116.129V119.265Z" fill="white"></path></svg> 