<?xml version="1.0" encoding="UTF-8"?> <svg xmlns="http://www.w3.org/2000/svg" width="359" height="236" viewBox="0 0 359 236" fill="none"><rect x="0.5" y="0.5" width="358" height="235" fill="black"></rect><rect x="0.5" y="0.5" width="358" height="235" stroke="white"></rect><path d="M212.992 53.1272V65.8675H187.739L185.009 77.8115C186.981 77.5081 188.687 77.3564 190.128 77.3564C198.242 77.3564 204.764 79.8969 209.693 84.9778C214.167 89.5279 216.404 95.5947 216.404 103.178C216.404 111.217 213.826 117.814 208.669 122.971C203.513 128.128 196.574 130.706 187.853 130.706C181.255 130.706 175.795 129.645 171.472 127.521C168.211 125.929 165.14 123.767 162.258 121.037L167.15 108.297C169.349 111.255 171.965 113.53 174.999 115.122C178.487 117.018 182.165 117.966 186.033 117.966C190.886 117.966 194.754 116.449 197.635 113.416C200.29 110.61 201.617 106.932 201.617 102.382C201.617 98.0594 200.138 94.571 197.18 91.9167C194.223 89.3384 190.279 88.0492 185.35 88.0492C179.89 88.0492 174.43 89.6796 168.97 92.9405L177.956 53.1272H212.992ZM216.445 143.902L228.503 113.302L241.243 114.781L225.204 144.925L216.445 143.902ZM298.361 120.241C292.674 127.218 285.773 130.706 277.658 130.706C269.544 130.706 262.605 127.218 256.842 120.241C251.154 113.188 248.31 103.444 248.31 91.0067C248.31 78.6456 251.154 68.9767 256.842 61.9999C262.605 54.9472 269.544 51.4209 277.658 51.4209C285.773 51.4209 292.674 54.9472 298.361 61.9999C304.125 68.9767 307.006 78.6836 307.006 91.1205C307.006 103.482 304.125 113.188 298.361 120.241ZM287.669 70.8726C284.711 66.3983 281.374 64.1612 277.658 64.1612C273.942 64.1612 270.568 66.3983 267.534 70.8726C264.577 75.271 263.098 81.9824 263.098 91.0067C263.098 100.031 264.577 106.78 267.534 111.255C270.492 115.729 273.867 117.966 277.658 117.966C281.45 117.966 284.825 115.729 287.782 111.255C290.74 106.78 292.219 100.031 292.219 91.0067C292.219 81.9824 290.702 75.271 287.669 70.8726Z" fill="white"></path><path d="M65.1172 154.042L71.093 171.752L89.7833 171.963L74.7863 183.119L80.3617 200.96L65.1172 190.144L49.8726 200.96L55.448 183.119L40.451 171.963L59.1413 171.752L65.1172 154.042Z" fill="#FF0B00"></path><path d="M122.936 154.042L128.911 171.752L147.602 171.963L132.605 183.119L138.18 200.96L122.936 190.144L107.691 200.96L113.266 183.119L98.2694 171.963L116.96 171.752L122.936 154.042Z" fill="#FF0B00"></path><path d="M179.936 154.042L185.911 171.752L204.602 171.963L189.605 183.119L195.18 200.96L179.936 190.144L164.691 200.96L170.266 183.119L155.269 171.963L173.96 171.752L179.936 154.042Z" fill="#FF0B00"></path><path d="M236.936 154.042L242.911 171.752L261.602 171.963L246.605 183.119L252.18 200.96L236.936 190.144L221.691 200.96L227.266 183.119L212.269 171.963L230.96 171.752L236.936 154.042Z" fill="#FF0B00"></path><path d="M293.936 154.042L299.911 171.752L318.602 171.963L303.605 183.119L309.18 200.96L293.936 190.144L278.691 200.96L284.266 183.119L269.269 171.963L287.96 171.752L293.936 154.042Z" fill="#FF0B00"></path><g clip-path="url(#clip0_177_710)"><path d="M138 89.819C138 86.6482 137.719 83.638 137.237 80.708H91.8828V98.8097H117.851C116.687 104.75 113.276 109.767 108.218 113.179V125.22H123.711C132.782 116.831 138 104.469 138 89.819Z" fill="#4285F4"></path><path d="M91.877 136.9C104.881 136.9 115.758 132.565 123.705 125.22L108.213 113.179C103.878 116.069 98.3791 117.835 91.877 117.835C79.3142 117.835 68.678 109.366 64.865 97.9275H48.8906V110.33C56.7975 126.063 73.0529 136.9 91.877 136.9Z" fill="#34A853"></path><path d="M64.8708 97.9276C63.8674 95.0378 63.3456 91.9473 63.3456 88.7363C63.3456 85.5254 63.9075 82.4349 64.8708 79.5451V67.1428H48.8964C45.6052 73.645 43.7188 80.9498 43.7188 88.7363C43.7188 96.5229 45.6052 103.828 48.8964 110.33L64.8708 97.9276Z" fill="#FBBC05"></path><path d="M91.877 59.6367C98.9812 59.6367 105.323 62.085 110.34 66.8613L124.067 53.1346C115.758 45.348 104.881 40.5718 91.877 40.5718C73.0529 40.5718 56.7975 51.4087 48.8906 67.1423L64.865 79.5445C68.678 68.1055 79.3142 59.6367 91.877 59.6367Z" fill="#EA4335"></path></g><defs><clipPath id="clip0_177_710"><rect width="99" height="99" fill="white" transform="translate(39 37.9001)"></rect></clipPath></defs></svg> 