<?xml version="1.0" encoding="UTF-8"?> <svg xmlns="http://www.w3.org/2000/svg" width="300" height="300" viewBox="0 0 300 300" fill="none"><g clip-path="url(#clip0_176_482)"><path d="M150 300C67.17 300 0 232.83 0 150C0 67.17 67.17 0 150 0C232.83 0 300 67.17 300 150C300 232.83 232.83 300 150 300Z" fill="#FF0B00"></path><path d="M150 66.0601C177.33 66.0601 180.57 66.1501 191.37 66.6601C201.36 67.1101 206.79 68.7901 210.39 70.2001C215.16 72.0601 218.58 74.2801 222.15 77.8501C225.72 81.4201 227.94 84.8401 229.8 89.6101C231.21 93.2101 232.86 98.6401 233.34 108.63C233.82 119.43 233.94 122.67 233.94 150C233.94 177.33 233.85 180.57 233.34 191.37C232.89 201.36 231.21 206.79 229.8 210.39C227.94 215.16 225.72 218.58 222.15 222.15C218.58 225.72 215.16 227.94 210.39 229.8C206.79 231.21 201.36 232.86 191.37 233.34C180.57 233.82 177.33 233.94 150 233.94C122.67 233.94 119.43 233.85 108.63 233.34C98.6401 232.89 93.2101 231.21 89.6101 229.8C84.8401 227.94 81.4201 225.72 77.8501 222.15C74.2801 218.58 72.0601 215.16 70.2001 210.39C68.7901 206.79 67.1401 201.36 66.6601 191.37C66.1801 180.57 66.0601 177.33 66.0601 150C66.0601 122.67 66.1501 119.43 66.6601 108.63C67.1101 98.6401 68.7901 93.2101 70.2001 89.6101C72.0601 84.8401 74.2801 81.4201 77.8501 77.8501C81.4201 74.2801 84.8401 72.0601 89.6101 70.2001C93.2101 68.7901 98.6401 67.1401 108.63 66.6601C119.43 66.1501 122.67 66.0601 150 66.0601ZM150 47.6101C122.19 47.6101 118.71 47.7301 107.79 48.2401C96.9001 48.7501 89.4601 50.4601 82.9201 53.0101C76.2001 55.5901 70.4701 59.1001 64.8001 64.8001C59.1001 70.5001 55.6201 76.2001 52.9801 82.9501C50.4601 89.4601 48.7201 96.9001 48.2101 107.82C47.7001 118.74 47.5801 122.22 47.5801 150.03C47.5801 177.84 47.7001 181.32 48.2101 192.24C48.7201 203.13 50.4301 210.57 52.9801 217.11C55.5901 223.8 59.1001 229.53 64.8001 235.2C70.5001 240.9 76.2001 244.38 82.9501 247.02C89.4601 249.54 96.9001 251.28 107.82 251.79C118.74 252.3 122.22 252.42 150.03 252.42C177.84 252.42 181.32 252.3 192.24 251.79C203.13 251.28 210.57 249.57 217.11 247.02C223.8 244.41 229.53 240.9 235.2 235.2C240.9 229.5 244.38 223.8 247.02 217.05C249.54 210.54 251.28 203.1 251.79 192.18C252.3 181.26 252.42 177.78 252.42 149.97C252.42 122.16 252.3 118.68 251.79 107.76C251.28 96.8701 249.57 89.4301 247.02 82.8901C244.41 76.2001 240.9 70.4701 235.2 64.8001C229.5 59.1001 223.8 55.6201 217.05 52.9801C210.54 50.4601 203.1 48.7201 192.18 48.2101C181.29 47.7301 177.81 47.6101 150 47.6101Z" fill="white"></path><path d="M150 97.4102C120.96 97.4102 97.4102 120.96 97.4102 150C97.4102 179.04 120.96 202.59 150 202.59C179.04 202.59 202.59 179.04 202.59 150C202.59 120.96 179.04 97.4102 150 97.4102ZM150 184.14C131.16 184.14 115.86 168.87 115.86 150C115.86 131.13 131.16 115.86 150 115.86C168.84 115.86 184.14 131.13 184.14 150C184.14 168.87 168.84 184.14 150 184.14Z" fill="white"></path><path d="M204.66 107.64C211.453 107.64 216.96 102.133 216.96 95.34C216.96 88.5469 211.453 83.04 204.66 83.04C197.867 83.04 192.36 88.5469 192.36 95.34C192.36 102.133 197.867 107.64 204.66 107.64Z" fill="white"></path></g><defs><clipPath id="clip0_176_482"><rect width="300" height="300" fill="white"></rect></clipPath></defs></svg> 