<?xml version="1.0" encoding="UTF-8"?> <svg xmlns="http://www.w3.org/2000/svg" width="300" height="300" viewBox="0 0 300 300" fill="none"><g clip-path="url(#clip0_176_483)"><path d="M150 300C67.17 300 0 232.83 0 150C0 67.17 67.17 0 150 0C232.83 0 300 67.17 300 150C300 232.83 232.83 300 150 300Z" fill="#FF0B00"></path><path d="M245.46 101.73C243.18 93.0901 236.43 86.31 227.85 84C212.31 79.8 150.03 79.8 150.03 79.8C150.03 79.8 87.7204 79.8 72.2104 84C63.6304 86.31 56.8804 93.0901 54.6004 101.73C50.4004 117.36 50.4004 150 50.4004 150C50.4004 150 50.4004 182.64 54.5704 198.27C56.8504 206.91 63.6004 213.69 72.1804 216C87.7204 220.2 150 220.2 150 220.2C150 220.2 212.31 220.2 227.82 216C236.4 213.69 243.15 206.91 245.43 198.27C249.6 182.64 249.6 150 249.6 150C249.6 150 249.6 117.36 245.46 101.73ZM129.63 179.61V120.39L181.68 150L129.63 179.61Z" fill="white"></path></g><defs><clipPath id="clip0_176_483"><rect width="300" height="300" fill="white"></rect></clipPath></defs></svg> 